# xmcd
#
# Track frame offsets:
#	150
#	20240
#	40340
#	57290
#
# Disc length: 1027 seconds
# Revision: 1
# Processed by: cddbd v1.5.2PL0 Copyright (c) Steve Scherf et al.
# Submitted via: dBpowerAMP V12.0
#
DISCID=32040104
DTITLE=森高千里 - Let's Go!
DYEAR=1997
DGENRE=J-POP
TTITLE0=Let's Go!
TTITLE1=Let's Go! (II)
TTITLE2=ボーッとしてみよう (Sweet Baby Version)
TTITLE3=Let's Go! (オリジナル・カラオケ)
EXTD=
EXTT0=
EXTT1=
EXTT2=
EXTT3=
PLAYORDER=
